<svg width="417" height="294" viewBox="0 0 417 294" fill="none" xmlns="http://www.w3.org/2000/svg">
<rect x="127" y="46" width="107" height="70" rx="29" stroke="#0E160C" stroke-width="20"/>
<rect x="127" y="136" width="108" height="71" rx="29" stroke="#FC501A" stroke-width="20"/>
<path d="M83.76 59.18C90.2 59.18 94.8 60.82 97.56 64.1C100.36 67.38 101.76 72.8 101.76 80.36V112.94C101.76 115.02 100.72 116.06 98.64 116.06C96.52 116.06 95.46 115.02 95.46 112.94V80.36C95.46 75.08 94.56 71.28 92.76 68.96C90.96 66.64 87.96 65.48 83.76 65.48H78.78C73.54 65.48 69.78 66.64 67.5 68.96C65.26 71.28 64.14 75.08 64.14 80.36V112.94C64.14 115.02 63.1 116.06 61.02 116.06C58.9 116.06 57.84 115.02 57.84 112.94V80.36C57.84 75.08 56.94 71.28 55.14 68.96C53.34 66.64 50.34 65.48 46.14 65.48H41.16C35.92 65.48 32.16 66.64 29.88 68.96C27.64 71.28 26.52 75.08 26.52 80.36V112.94C26.52 115.02 25.48 116.06 23.4 116.06C21.28 116.06 20.22 115.02 20.22 112.94V62.42C20.22 60.34 21.28 59.3 23.4 59.3C25.48 59.3 26.52 60.34 26.52 62.42V67.1C28.28 64.26 30.36 62.24 32.76 61.04C35.2 59.8 38.28 59.18 42 59.18H46.14C50.34 59.18 53.7 59.92 56.22 61.4C58.78 62.84 60.8 65.22 62.28 68.54C64.04 65.22 66.2 62.84 68.76 61.4C71.32 59.92 74.66 59.18 78.78 59.18H83.76Z" fill="#FC501A"/>
<path d="M272.64 115.88C267.72 115.88 263.96 114.84 261.36 112.76C258.76 110.64 257.2 107.42 256.68 103.1C256.56 102.06 256.78 101.26 257.34 100.7C257.9 100.1 258.72 99.8 259.8 99.8C260.8 99.8 261.54 100.06 262.02 100.58C262.54 101.1 262.88 101.88 263.04 102.92C263.4 105.4 264.3 107.14 265.74 108.14C267.22 109.1 269.52 109.58 272.64 109.58H292.32C296.04 109.58 298.6 108.88 300 107.48C301.4 106.08 302.1 103.52 302.1 99.8C302.1 96.04 301.4 93.46 300 92.06C298.6 90.66 296.04 89.96 292.32 89.96H272.88C267.68 89.96 263.8 88.72 261.24 86.24C258.72 83.72 257.46 79.86 257.46 74.66C257.46 69.34 258.72 65.44 261.24 62.96C263.76 60.44 267.64 59.18 272.88 59.18H291.72C300.76 59.18 305.78 63.18 306.78 71.18C306.94 72.22 306.72 73.04 306.12 73.64C305.56 74.2 304.76 74.48 303.72 74.48C302.72 74.48 301.96 74.22 301.44 73.7C300.96 73.18 300.62 72.42 300.42 71.42C300.14 69.18 299.32 67.64 297.96 66.8C296.64 65.92 294.56 65.48 291.72 65.48H272.88C269.4 65.48 267 66.12 265.68 67.4C264.4 68.68 263.76 71.1 263.76 74.66C263.76 78.06 264.42 80.42 265.74 81.74C267.06 83.02 269.44 83.66 272.88 83.66H292.32C297.84 83.66 301.9 84.98 304.5 87.62C307.1 90.22 308.4 94.28 308.4 99.8C308.4 105.28 307.1 109.34 304.5 111.98C301.9 114.58 297.84 115.88 292.32 115.88H272.64ZM323.231 116C321.111 116 320.051 114.94 320.051 112.82V35.9C320.051 33.82 321.111 32.78 323.231 32.78C325.311 32.78 326.351 33.82 326.351 35.9V68.18C330.151 62.26 337.031 59.3 346.991 59.3H350.351C357.831 59.3 363.291 61.04 366.731 64.52C370.211 67.96 371.951 73.42 371.951 80.9V112.82C371.951 114.94 370.911 116 368.831 116C366.711 116 365.651 114.94 365.651 112.82V80.9C365.651 75.18 364.511 71.2 362.231 68.96C359.991 66.72 356.031 65.6 350.351 65.6H346.991C340.791 65.6 335.911 66.58 332.351 68.54C328.791 70.5 326.791 73.56 326.351 77.72V112.82C326.351 114.94 325.311 116 323.231 116ZM387.893 48.38C385.133 48.38 383.753 46.96 383.753 44.12V41.42C383.753 38.66 385.133 37.28 387.893 37.28H390.593C393.273 37.28 394.613 38.66 394.613 41.42V44.12C394.613 46.96 393.273 48.38 390.593 48.38H387.893ZM389.273 116C387.153 116 386.093 114.94 386.093 112.82V62.42C386.093 60.34 387.153 59.3 389.273 59.3C391.353 59.3 392.393 60.34 392.393 62.42V112.82C392.393 114.94 391.353 116 389.273 116Z" fill="#FC501A"/>
<path d="M259.166 277.926C254.751 277.926 251.47 276.952 249.324 275.003C247.203 273.03 246.068 269.934 245.92 265.716C245.895 265.124 246.056 264.655 246.401 264.31C246.771 263.94 247.252 263.755 247.844 263.755C248.436 263.755 248.905 263.928 249.25 264.273C249.595 264.618 249.793 265.087 249.842 265.679C249.941 268.787 250.681 270.958 252.062 272.191C253.443 273.424 255.811 274.041 259.166 274.041H269.822C273.325 274.041 275.754 273.363 277.111 272.006C278.492 270.625 279.183 268.207 279.183 264.754C279.183 261.251 278.492 258.822 277.111 257.465C275.754 256.084 273.325 255.393 269.822 255.393H259.684C255.343 255.393 252.161 254.382 250.138 252.359C248.115 250.336 247.104 247.167 247.104 242.85C247.104 238.533 248.103 235.364 250.101 233.341C252.124 231.318 255.293 230.307 259.61 230.307H269.97C274.114 230.307 277.185 231.232 279.183 233.082C281.206 234.932 282.291 237.843 282.439 241.814C282.488 242.406 282.328 242.887 281.958 243.257C281.613 243.602 281.132 243.775 280.515 243.775C279.948 243.775 279.491 243.602 279.146 243.257C278.801 242.912 278.603 242.443 278.554 241.851C278.455 239.014 277.765 237.029 276.482 235.894C275.199 234.759 273.029 234.192 269.97 234.192H259.61C256.379 234.192 254.134 234.833 252.876 236.116C251.618 237.374 250.989 239.619 250.989 242.85C250.989 246.081 251.618 248.338 252.876 249.621C254.159 250.879 256.428 251.508 259.684 251.508H269.822C274.41 251.508 277.765 252.581 279.886 254.727C282.007 256.848 283.068 260.191 283.068 264.754C283.068 269.317 282.007 272.66 279.886 274.781C277.765 276.878 274.41 277.926 269.822 277.926H259.166ZM317.558 243.035C318.865 243.035 319.519 243.676 319.519 244.959V276.039C319.519 277.346 318.865 278 317.558 278C316.275 278 315.634 277.346 315.634 276.039V272.524C313.29 276.175 309.048 278 302.906 278H300.834C296.221 278 292.842 276.927 290.696 274.781C288.574 272.635 287.514 269.256 287.514 264.643V244.959C287.514 243.676 288.155 243.035 289.438 243.035C290.745 243.035 291.399 243.676 291.399 244.959V264.643C291.399 268.17 292.089 270.637 293.471 272.043C294.877 273.424 297.331 274.115 300.834 274.115H302.906C306.729 274.115 309.738 273.498 311.934 272.265C314.129 271.032 315.362 269.145 315.634 266.604V244.959C315.634 243.676 316.275 243.035 317.558 243.035ZM334.715 277.926C331.681 277.926 329.362 277.285 327.759 276.002C326.155 274.695 325.193 272.709 324.873 270.045C324.799 269.404 324.934 268.91 325.28 268.565C325.625 268.195 326.131 268.01 326.797 268.01C327.413 268.01 327.87 268.17 328.166 268.491C328.486 268.812 328.696 269.293 328.795 269.934C329.017 271.463 329.572 272.536 330.46 273.153C331.372 273.745 332.791 274.041 334.715 274.041H346.851C349.145 274.041 350.723 273.609 351.587 272.746C352.45 271.883 352.882 270.304 352.882 268.01C352.882 265.691 352.45 264.1 351.587 263.237C350.723 262.374 349.145 261.942 346.851 261.942H334.863C331.656 261.942 329.263 261.177 327.685 259.648C326.131 258.094 325.354 255.714 325.354 252.507C325.354 249.226 326.131 246.821 327.685 245.292C329.239 243.738 331.631 242.961 334.863 242.961H346.481C352.055 242.961 355.151 245.428 355.768 250.361C355.866 251.002 355.731 251.508 355.361 251.878C355.015 252.223 354.522 252.396 353.881 252.396C353.264 252.396 352.795 252.236 352.475 251.915C352.179 251.594 351.969 251.126 351.846 250.509C351.673 249.128 351.167 248.178 350.329 247.66C349.515 247.117 348.232 246.846 346.481 246.846H334.863C332.717 246.846 331.237 247.241 330.423 248.03C329.633 248.819 329.239 250.312 329.239 252.507C329.239 254.604 329.646 256.059 330.46 256.873C331.274 257.662 332.741 258.057 334.863 258.057H346.851C350.255 258.057 352.758 258.871 354.362 260.499C355.965 262.102 356.767 264.606 356.767 268.01C356.767 271.389 355.965 273.893 354.362 275.521C352.758 277.124 350.255 277.926 346.851 277.926H334.715ZM364.063 278C362.755 278 362.102 277.346 362.102 276.039V228.605C362.102 227.322 362.755 226.681 364.063 226.681C365.345 226.681 365.987 227.322 365.987 228.605V248.511C368.33 244.86 372.573 243.035 378.715 243.035H380.787C385.399 243.035 388.766 244.108 390.888 246.254C393.034 248.375 394.107 251.742 394.107 256.355V276.039C394.107 277.346 393.465 278 392.183 278C390.875 278 390.222 277.346 390.222 276.039V256.355C390.222 252.828 389.519 250.373 388.113 248.992C386.731 247.611 384.289 246.92 380.787 246.92H378.715C374.891 246.92 371.882 247.524 369.687 248.733C367.491 249.942 366.258 251.829 365.987 254.394V276.039C365.987 277.346 365.345 278 364.063 278ZM402.088 236.301C400.386 236.301 399.535 235.425 399.535 233.674V232.009C399.535 230.307 400.386 229.456 402.088 229.456H403.753C405.405 229.456 406.232 230.307 406.232 232.009V233.674C406.232 235.425 405.405 236.301 403.753 236.301H402.088ZM402.939 278C401.631 278 400.978 277.346 400.978 276.039V244.959C400.978 243.676 401.631 243.035 402.939 243.035C404.221 243.035 404.863 243.676 404.863 244.959V276.039C404.863 277.346 404.221 278 402.939 278Z" fill="#FC501A"/>
<path d="M80.99 155.445C87.9667 155.445 92.95 157.222 95.94 160.775C98.9733 164.328 100.49 170.2 100.49 178.39V213.685C100.49 215.938 99.3633 217.065 97.11 217.065C94.8133 217.065 93.665 215.938 93.665 213.685V178.39C93.665 172.67 92.69 168.553 90.74 166.04C88.79 163.527 85.54 162.27 80.99 162.27H75.595C69.9183 162.27 65.845 163.527 63.375 166.04C60.9483 168.553 59.735 172.67 59.735 178.39V213.685C59.735 215.938 58.6083 217.065 56.355 217.065C54.0583 217.065 52.91 215.938 52.91 213.685V178.39C52.91 172.67 51.935 168.553 49.985 166.04C48.035 163.527 44.785 162.27 40.235 162.27H34.84C29.1633 162.27 25.09 163.527 22.62 166.04C20.1933 168.553 18.98 172.67 18.98 178.39V213.685C18.98 215.938 17.8533 217.065 15.6 217.065C13.3033 217.065 12.155 215.938 12.155 213.685V158.955C12.155 156.702 13.3033 155.575 15.6 155.575C17.8533 155.575 18.98 156.702 18.98 158.955V164.025C20.8867 160.948 23.14 158.76 25.74 157.46C28.3833 156.117 31.72 155.445 35.75 155.445H40.235C44.785 155.445 48.425 156.247 51.155 157.85C53.9283 159.41 56.1167 161.988 57.72 165.585C59.6267 161.988 61.9667 159.41 64.74 157.85C67.5133 156.247 71.1317 155.445 75.595 155.445H80.99Z" fill="#0E160C"/>
<path d="M275.61 216.87C270.28 216.87 266.207 215.743 263.39 213.49C260.573 211.193 258.883 207.705 258.32 203.025C258.19 201.898 258.428 201.032 259.035 200.425C259.642 199.775 260.53 199.45 261.7 199.45C262.783 199.45 263.585 199.732 264.105 200.295C264.668 200.858 265.037 201.703 265.21 202.83C265.6 205.517 266.575 207.402 268.135 208.485C269.738 209.525 272.23 210.045 275.61 210.045H296.93C300.96 210.045 303.733 209.287 305.25 207.77C306.767 206.253 307.525 203.48 307.525 199.45C307.525 195.377 306.767 192.582 305.25 191.065C303.733 189.548 300.96 188.79 296.93 188.79H275.87C270.237 188.79 266.033 187.447 263.26 184.76C260.53 182.03 259.165 177.848 259.165 172.215C259.165 166.452 260.53 162.227 263.26 159.54C265.99 156.81 270.193 155.445 275.87 155.445H296.28C306.073 155.445 311.512 159.778 312.595 168.445C312.768 169.572 312.53 170.46 311.88 171.11C311.273 171.717 310.407 172.02 309.28 172.02C308.197 172.02 307.373 171.738 306.81 171.175C306.29 170.612 305.922 169.788 305.705 168.705C305.402 166.278 304.513 164.61 303.04 163.7C301.61 162.747 299.357 162.27 296.28 162.27H275.87C272.1 162.27 269.5 162.963 268.07 164.35C266.683 165.737 265.99 168.358 265.99 172.215C265.99 175.898 266.705 178.455 268.135 179.885C269.565 181.272 272.143 181.965 275.87 181.965H296.93C302.91 181.965 307.308 183.395 310.125 186.255C312.942 189.072 314.35 193.47 314.35 199.45C314.35 205.387 312.942 209.785 310.125 212.645C307.308 215.462 302.91 216.87 296.93 216.87H275.61ZM329.767 217C327.471 217 326.322 215.852 326.322 213.555V130.225C326.322 127.972 327.471 126.845 329.767 126.845C332.021 126.845 333.147 127.972 333.147 130.225V165.195C337.264 158.782 344.717 155.575 355.507 155.575H359.147C367.251 155.575 373.166 157.46 376.892 161.23C380.662 164.957 382.547 170.872 382.547 178.975V213.555C382.547 215.852 381.421 217 379.167 217C376.871 217 375.722 215.852 375.722 213.555V178.975C375.722 172.778 374.487 168.467 372.017 166.04C369.591 163.613 365.301 162.4 359.147 162.4H355.507C348.791 162.4 343.504 163.462 339.647 165.585C335.791 167.708 333.624 171.023 333.147 175.53V213.555C333.147 215.852 332.021 217 329.767 217ZM399.168 143.745C396.178 143.745 394.683 142.207 394.683 139.13V136.205C394.683 133.215 396.178 131.72 399.168 131.72H402.093C404.996 131.72 406.448 133.215 406.448 136.205V139.13C406.448 142.207 404.996 143.745 402.093 143.745H399.168ZM400.663 217C398.366 217 397.218 215.852 397.218 213.555V158.955C397.218 156.702 398.366 155.575 400.663 155.575C402.916 155.575 404.043 156.702 404.043 158.955V213.555C404.043 215.852 402.916 217 400.663 217Z" fill="#0E160C"/>
</svg>
